<svg width="88" height="23" viewBox="0 0 88 23" fill="none" xmlns="http://www.w3.org/2000/svg">
<path d="M11.016 12.08C10.792 12.72 10.584 13.288 10.392 13.784C10.2 14.28 10.016 14.752 9.84 15.2C9.84 15.216 9.832 15.24 9.816 15.272C9.8 15.288 9.792 15.304 9.792 15.32C9.68 15.592 9.568 15.872 9.456 16.16C9.344 16.448 9.224 16.744 9.096 17.048C8.984 17.304 8.832 17.616 8.64 17.984C8.464 18.352 8.272 18.736 8.064 19.136C8.048 19.168 8.032 19.2 8.016 19.232C8 19.28 7.976 19.328 7.944 19.376C7.752 19.728 7.568 20.072 7.392 20.408C7.216 20.744 7.064 21.024 6.936 21.248C6.824 21.44 6.704 21.624 6.576 21.8C6.448 21.976 6.312 22.128 6.168 22.256C5.96 22.496 5.752 22.68 5.544 22.808C5.336 22.936 5.168 23 5.04 23C4.96 23 4.896 22.976 4.848 22.928C4.8 22.896 4.768 22.824 4.752 22.712C4.752 22.712 4.752 22.704 4.752 22.688C4.752 22.688 4.752 22.68 4.752 22.664C4.752 22.648 4.752 22.632 4.752 22.616C4.752 22.456 4.76 22.28 4.776 22.088C4.792 21.896 4.816 21.704 4.848 21.512C4.848 21.432 4.848 21.352 4.848 21.272C4.864 21.192 4.872 21.112 4.872 21.032C4.888 20.904 4.896 20.776 4.896 20.648C4.912 20.52 4.92 20.392 4.92 20.264C4.92 20.104 5.136 19.72 5.568 19.112C6.016 18.52 6.56 17.448 7.2 15.896C6.8 16.28 6.336 16.584 5.808 16.808C5.28 17.016 4.744 17.136 4.2 17.168C4.152 17.168 4.104 17.168 4.056 17.168C4.024 17.168 3.992 17.168 3.96 17.168C2.984 17.168 2.096 16.824 1.296 16.136C0.512 15.448 0.12 14.328 0.12 12.776C0.12 12.76 0.12 12.744 0.12 12.728C0.12 12.696 0.12 12.672 0.12 12.656C0.12 12.64 0.12 12.624 0.12 12.608C0.12 12.576 0.12 12.552 0.12 12.536C0.136 11.976 0.208 11.392 0.336 10.784C0.48 10.16 0.664 9.544 0.888 8.936C1.576 7.064 2.608 5.312 3.984 3.68C5.36 2.032 6.808 0.975999 8.328 0.511999C8.552 0.431999 8.784 0.375999 9.024 0.344C9.264 0.296 9.504 0.271999 9.744 0.271999C9.776 0.271999 9.808 0.271999 9.84 0.271999C9.888 0.271999 9.928 0.271999 9.96 0.271999C11.208 0.32 12.144 0.592 12.768 1.088C13.408 1.584 13.728 2.272 13.728 3.152C13.728 3.248 13.72 3.352 13.704 3.464C13.704 3.56 13.696 3.664 13.68 3.776C13.664 3.856 13.648 3.936 13.632 4.016C13.616 4.096 13.592 4.176 13.56 4.256C13.4 4.784 13.128 5.304 12.744 5.816C12.36 6.312 11.952 6.736 11.52 7.088C11.216 7.344 10.912 7.544 10.608 7.688C10.32 7.832 10.072 7.904 9.864 7.904C9.784 7.904 9.736 7.792 9.72 7.568C9.704 7.328 9.696 7.064 9.696 6.776C9.696 6.76 9.696 6.744 9.696 6.728C9.696 6.696 9.696 6.672 9.696 6.656C9.696 6.4 9.696 6.168 9.696 5.96C9.712 5.736 9.736 5.616 9.768 5.6C9.864 5.552 9.968 5.488 10.08 5.408C10.208 5.328 10.336 5.24 10.464 5.144C10.688 4.952 10.896 4.728 11.088 4.472C11.296 4.216 11.408 3.944 11.424 3.656C11.424 3.64 11.424 3.624 11.424 3.608C11.424 3.592 11.424 3.576 11.424 3.56C11.424 3.176 11.296 2.896 11.04 2.72C10.784 2.528 10.456 2.432 10.056 2.432C9.816 2.432 9.56 2.464 9.288 2.528C9.032 2.576 8.76 2.664 8.472 2.792C8.36 2.84 8.24 2.896 8.112 2.96C8 3.008 7.888 3.072 7.776 3.152C6.8 3.776 5.936 4.648 5.184 5.768C4.448 6.888 3.84 8.048 3.36 9.248C3.168 9.76 2.992 10.264 2.832 10.76C2.688 11.24 2.568 11.712 2.472 12.176C2.44 12.304 2.416 12.44 2.4 12.584C2.384 12.728 2.376 12.872 2.376 13.016C2.36 13.512 2.488 13.96 2.76 14.36C3.032 14.744 3.512 14.952 4.2 14.984C4.216 14.984 4.224 14.984 4.224 14.984C4.24 14.984 4.248 14.984 4.248 14.984C4.504 14.984 4.792 14.928 5.112 14.816C5.432 14.688 5.752 14.52 6.072 14.312C6.424 14.072 6.776 13.8 7.128 13.496C7.48 13.176 7.792 12.856 8.064 12.536C8.24 12.328 8.4 12.12 8.544 11.912C8.688 11.704 8.8 11.512 8.88 11.336C8.928 11.24 9 11.08 9.096 10.856C9.192 10.616 9.312 10.368 9.456 10.112C9.632 9.792 9.84 9.496 10.08 9.224C10.336 8.952 10.632 8.816 10.968 8.816C11.016 8.816 11.064 8.824 11.112 8.84C11.176 8.84 11.24 8.848 11.304 8.864C11.336 8.88 11.36 8.896 11.376 8.912C11.408 8.912 11.44 8.92 11.472 8.936C11.664 9 11.808 9.12 11.904 9.296C12.016 9.456 12.072 9.672 12.072 9.944C12.072 10.008 12.072 10.072 12.072 10.136C12.072 10.2 12.064 10.272 12.048 10.352C12 10.576 11.928 10.776 11.832 10.952C11.752 11.128 11.656 11.288 11.544 11.432C11.416 11.624 11.296 11.776 11.184 11.888C11.072 11.984 11.016 12.048 11.016 12.08ZM20.2719 14.888C20.2719 14.888 20.2719 14.896 20.2719 14.912C20.2879 14.912 20.2959 14.912 20.2959 14.912C20.3119 14.912 20.3279 14.912 20.3439 14.912C20.4719 14.928 20.7359 14.808 21.1359 14.552C21.5359 14.296 21.9599 13.992 22.4079 13.64C22.5359 13.544 22.6559 13.448 22.7679 13.352C22.8959 13.256 23.0159 13.152 23.1279 13.04C23.1439 13.024 23.1679 13.008 23.1999 12.992C23.2319 12.96 23.2559 12.936 23.2719 12.92C23.4159 12.792 23.5199 12.816 23.5839 12.992C23.6639 13.152 23.7039 13.368 23.7039 13.64C23.7039 13.688 23.7039 13.736 23.7039 13.784C23.7039 13.832 23.7039 13.872 23.7039 13.904C23.6879 14.032 23.6639 14.152 23.6319 14.264C23.6159 14.376 23.5919 14.472 23.5599 14.552C23.4959 14.712 23.3679 14.88 23.1759 15.056C22.9839 15.216 22.7599 15.376 22.5039 15.536C22.3759 15.632 22.2479 15.72 22.1199 15.8C21.9919 15.88 21.8559 15.96 21.7119 16.04C21.5679 16.12 21.4239 16.208 21.2799 16.304C21.1519 16.384 21.0239 16.464 20.8959 16.544C20.6879 16.672 20.4719 16.784 20.2479 16.88C20.0239 16.96 19.7999 17.016 19.5759 17.048C19.4959 17.064 19.4159 17.072 19.3359 17.072C19.2719 17.088 19.1999 17.096 19.1199 17.096C19.0399 17.096 18.9599 17.088 18.8799 17.072C18.8159 17.072 18.7519 17.064 18.6879 17.048C18.6559 17.048 18.6159 17.04 18.5679 17.024C18.5359 17.024 18.5039 17.016 18.4719 17C18.3599 16.984 18.2719 16.888 18.2079 16.712C18.1439 16.536 18.1119 16.336 18.1119 16.112C18.1119 16.096 18.1119 16.08 18.1119 16.064C18.1119 16.048 18.1119 16.032 18.1119 16.016C18.1119 16 18.1119 15.984 18.1119 15.968C18.1119 15.952 18.1119 15.936 18.1119 15.92C18.0479 15.984 17.9759 16.056 17.8959 16.136C17.8319 16.2 17.7599 16.264 17.6799 16.328C17.4559 16.52 17.1759 16.696 16.8399 16.856C16.5039 17 16.0399 17.08 15.4479 17.096C15.4479 17.096 15.4399 17.096 15.4239 17.096C15.4239 17.096 15.4159 17.096 15.3999 17.096C15.3839 17.096 15.3679 17.096 15.3519 17.096C14.8239 17.096 14.3359 16.928 13.8879 16.592C13.4559 16.24 13.1839 15.704 13.0719 14.984C13.0399 14.76 13.0159 14.552 12.9999 14.36C12.9839 14.152 12.9759 13.968 12.9759 13.808C12.9759 13.408 13.0159 13.08 13.0959 12.824C13.1599 12.552 13.2399 12.296 13.3359 12.056C13.3839 11.96 13.4319 11.864 13.4799 11.768C13.5279 11.672 13.5759 11.568 13.6239 11.456C13.7039 11.28 13.8319 11.096 14.0079 10.904C14.1999 10.696 14.4239 10.488 14.6799 10.28C15.2079 9.864 15.8479 9.472 16.5999 9.104C17.3519 8.736 18.1359 8.496 18.9519 8.384C19.0799 8.368 19.2079 8.36 19.3359 8.36C19.4799 8.344 19.6159 8.336 19.7439 8.336C19.7759 8.336 19.7999 8.336 19.8159 8.336C19.8479 8.336 19.8799 8.336 19.9119 8.336C19.9279 8.336 19.9519 8.336 19.9839 8.336C20.0159 8.336 20.0399 8.336 20.0559 8.336C20.1039 8.336 20.1519 8.336 20.1999 8.336C20.2479 8.336 20.2959 8.336 20.3439 8.336C20.4079 8.336 20.4639 8.344 20.5119 8.36C20.5759 8.36 20.6399 8.36 20.7039 8.36C20.9759 8.36 21.2239 8.376 21.4479 8.408C21.6719 8.424 21.8079 8.456 21.8559 8.504C21.8719 8.536 21.8879 8.608 21.9039 8.72C21.9359 8.832 21.9599 8.952 21.9759 9.08C21.9759 9.176 21.9759 9.272 21.9759 9.368C21.9919 9.464 21.9999 9.536 21.9999 9.584C21.9999 9.632 21.9999 9.68 21.9999 9.728C21.9999 9.76 22.0079 9.792 22.0239 9.824C22.0239 9.872 22.0239 9.92 22.0239 9.968C22.0239 10 22.0239 10.032 22.0239 10.064C22.0239 10.16 22.0159 10.24 21.9999 10.304C21.9839 10.352 21.9359 10.368 21.8559 10.352C21.8239 10.352 21.7599 10.336 21.6639 10.304C21.5839 10.256 21.4719 10.208 21.3279 10.16C21.1839 10.096 21.0079 10.048 20.7999 10.016C20.6079 9.968 20.3919 9.944 20.1519 9.944C20.1359 9.944 20.1199 9.944 20.1039 9.944C20.0879 9.944 20.0719 9.944 20.0559 9.944C20.0559 9.944 20.0479 9.944 20.0319 9.944C19.7759 9.944 19.4959 9.976 19.1919 10.04C18.8879 10.104 18.5839 10.2 18.2799 10.328C17.6079 10.584 16.9839 10.96 16.4079 11.456C15.8319 11.936 15.4879 12.472 15.3759 13.064C15.3599 13.256 15.3439 13.432 15.3279 13.592C15.3119 13.752 15.3039 13.896 15.3039 14.024C15.2879 14.44 15.3359 14.728 15.4479 14.888C15.5759 15.048 15.7279 15.128 15.9039 15.128C15.9679 15.128 16.0319 15.12 16.0959 15.104C16.1759 15.088 16.2479 15.072 16.3119 15.056C16.3919 15.024 16.4719 14.992 16.5519 14.96C16.6319 14.912 16.7039 14.864 16.7679 14.816C16.8159 14.784 16.8639 14.752 16.9119 14.72C16.9599 14.688 17.0079 14.656 17.0559 14.624C17.3439 14.416 17.6079 14.184 17.8479 13.928C18.1039 13.656 18.3519 13.352 18.5919 13.016C18.7679 12.76 18.9439 12.48 19.1199 12.176C19.3119 11.872 19.5119 11.536 19.7199 11.168C19.7359 11.168 19.7519 11.176 19.7679 11.192C19.7839 11.192 19.7999 11.2 19.8159 11.216C19.8799 11.232 19.9519 11.256 20.0319 11.288C20.1279 11.304 20.2239 11.312 20.3199 11.312C20.3519 11.328 20.3919 11.336 20.4399 11.336C20.4879 11.336 20.5279 11.336 20.5599 11.336C20.6079 11.336 20.6559 11.336 20.7039 11.336C20.7679 11.336 20.8319 11.336 20.8959 11.336C21.0719 11.336 21.2319 11.336 21.3759 11.336C21.5359 11.336 21.6639 11.336 21.7599 11.336C21.3919 12.168 21.0479 12.896 20.7279 13.52C20.4239 14.128 20.2639 14.544 20.2479 14.768C20.2479 14.784 20.2479 14.808 20.2479 14.84C20.2479 14.856 20.2559 14.872 20.2719 14.888ZM26.1707 9.344C26.0267 9.2 25.9227 9.048 25.8587 8.888C25.8107 8.728 25.7867 8.568 25.7867 8.408C25.7867 8.136 25.8507 7.88 25.9787 7.64C26.1227 7.384 26.2747 7.2 26.4347 7.088C26.4827 7.072 26.5227 7.056 26.5547 7.04C26.6027 7.008 26.6427 6.992 26.6747 6.992C26.7547 6.976 26.8267 6.968 26.8907 6.968C26.9707 6.952 27.0427 6.944 27.1067 6.944C27.4427 6.944 27.7227 7.032 27.9467 7.208C28.1707 7.368 28.2987 7.56 28.3307 7.784C28.3467 7.864 28.3547 7.936 28.3547 8C28.3707 8.064 28.3787 8.128 28.3787 8.192C28.3947 8.304 28.4107 8.4 28.4267 8.48C28.4587 8.56 28.4987 8.624 28.5467 8.672C28.5627 8.672 28.5787 8.672 28.5947 8.672C28.5947 8.688 28.5947 8.696 28.5947 8.696C28.6107 8.696 28.6187 8.696 28.6187 8.696C28.6667 8.696 28.7307 8.688 28.8107 8.672C28.8907 8.656 28.9867 8.632 29.0987 8.6C29.1947 8.584 29.2987 8.568 29.4107 8.552C29.5387 8.536 29.6587 8.528 29.7707 8.528C29.8987 8.528 30.0267 8.544 30.1547 8.576C30.2827 8.592 30.4027 8.64 30.5147 8.72C30.7547 8.864 30.9227 9.032 31.0187 9.224C31.1147 9.416 31.1707 9.624 31.1867 9.848C31.1867 9.912 31.1787 9.984 31.1627 10.064C31.1627 10.144 31.1467 10.216 31.1147 10.28C31.0987 10.36 31.0747 10.44 31.0427 10.52C31.0107 10.584 30.9787 10.656 30.9467 10.736C30.8347 11.008 30.6987 11.296 30.5387 11.6C30.3947 11.904 30.2427 12.216 30.0827 12.536C30.0667 12.568 30.0507 12.6 30.0347 12.632C30.0187 12.648 30.0107 12.672 30.0107 12.704C29.8347 13.024 29.6667 13.344 29.5067 13.664C29.3627 13.968 29.2267 14.248 29.0987 14.504C29.0987 14.52 29.0907 14.536 29.0747 14.552C29.0747 14.616 29.0987 14.68 29.1467 14.744C29.1947 14.792 29.2587 14.816 29.3387 14.816C29.3707 14.832 29.3947 14.84 29.4107 14.84C29.4427 14.824 29.4747 14.808 29.5067 14.792C29.6187 14.744 29.7787 14.656 29.9867 14.528C30.2107 14.4 30.4427 14.264 30.6827 14.12C30.7307 14.072 30.7787 14.032 30.8267 14C30.8747 13.968 30.9307 13.936 30.9947 13.904C31.2027 13.76 31.3867 13.616 31.5467 13.472C31.7227 13.328 31.8507 13.216 31.9307 13.136C32.0107 13.024 32.0747 12.952 32.1227 12.92C32.1707 12.872 32.2107 12.84 32.2427 12.824C32.2587 12.824 32.2747 12.832 32.2907 12.848C32.3067 12.848 32.3227 12.856 32.3387 12.872C32.3547 12.888 32.3707 12.904 32.3867 12.92C32.4027 12.936 32.4187 12.952 32.4347 12.968C32.4827 13.016 32.5227 13.128 32.5547 13.304C32.5867 13.48 32.6027 13.672 32.6027 13.88C32.6027 14.056 32.5867 14.224 32.5547 14.384C32.5387 14.544 32.4907 14.656 32.4107 14.72C32.2667 14.848 32.0987 14.984 31.9067 15.128C31.7307 15.272 31.5387 15.416 31.3307 15.56C30.8987 15.88 30.4107 16.176 29.8667 16.448C29.3387 16.72 28.7787 16.92 28.1867 17.048C28.0907 17.08 27.9947 17.096 27.8987 17.096C27.8187 17.112 27.7387 17.12 27.6587 17.12C27.2587 17.12 26.9387 17.008 26.6987 16.784C26.4587 16.56 26.3307 16.288 26.3147 15.968C26.3147 15.888 26.3227 15.808 26.3387 15.728C26.3707 15.632 26.3947 15.544 26.4107 15.464C26.5547 15.08 26.6987 14.712 26.8427 14.36C27.0027 14.008 27.1627 13.664 27.3227 13.328C27.5307 12.896 27.7467 12.456 27.9707 12.008C28.1947 11.56 28.4267 11.072 28.6667 10.544C28.6827 10.528 28.6907 10.512 28.6907 10.496C28.6907 10.48 28.6907 10.464 28.6907 10.448C28.6907 10.384 28.6507 10.336 28.5707 10.304C28.5067 10.272 28.4187 10.256 28.3067 10.256C28.2747 10.256 28.2427 10.256 28.2107 10.256C28.1787 10.256 28.1387 10.264 28.0907 10.28C27.9947 10.296 27.8987 10.328 27.8027 10.376C27.7067 10.408 27.6347 10.456 27.5867 10.52C27.5227 10.616 27.4747 10.688 27.4427 10.736C27.4107 10.768 27.3867 10.8 27.3707 10.832C27.3387 10.896 27.2747 10.984 27.1787 11.096C27.0987 11.208 26.8747 11.464 26.5067 11.864C26.3787 12.008 26.2427 12.152 26.0987 12.296C25.9707 12.44 25.8347 12.584 25.6907 12.728C25.6107 12.808 25.5307 12.888 25.4507 12.968C25.3707 13.048 25.2907 13.128 25.2107 13.208C24.7467 13.656 24.3147 14.056 23.9147 14.408C23.5307 14.744 23.2667 14.944 23.1227 15.008C23.0587 15.024 23.0187 14.944 23.0027 14.768C22.9707 14.576 22.9547 14.352 22.9547 14.096C22.9547 14.08 22.9547 14.064 22.9547 14.048C22.9547 14.032 22.9547 14.016 22.9547 14C22.9547 13.776 22.9707 13.568 23.0027 13.376C23.0347 13.184 23.0827 13.056 23.1467 12.992C23.3387 12.832 23.5227 12.664 23.6987 12.488C23.8747 12.312 24.0427 12.136 24.2027 11.96C24.8107 11.304 25.2907 10.704 25.6427 10.16C25.9947 9.616 26.1707 9.344 26.1707 9.344ZM36.4215 11.96L36.4455 12.008C36.7815 11.72 37.1095 11.44 37.4295 11.168C37.7655 10.896 38.0935 10.624 38.4135 10.352C38.4615 10.32 38.5015 10.288 38.5335 10.256C38.5655 10.224 38.5975 10.2 38.6295 10.184C38.8215 10.024 39.0055 9.872 39.1815 9.728C39.3735 9.568 39.5575 9.416 39.7335 9.272C39.7975 9.224 39.8695 9.176 39.9495 9.128C40.0295 9.064 40.1175 9 40.2135 8.936C40.3095 8.872 40.4135 8.816 40.5255 8.768C40.6375 8.704 40.7575 8.648 40.8855 8.6C41.0135 8.536 41.1415 8.488 41.2695 8.456C41.3975 8.424 41.5175 8.408 41.6295 8.408C41.6935 8.408 41.7575 8.416 41.8215 8.432C41.8855 8.448 41.9495 8.464 42.0135 8.48C42.1895 8.528 42.3495 8.608 42.4935 8.72C42.6375 8.816 42.7095 8.944 42.7095 9.104C42.7095 9.12 42.7095 9.144 42.7095 9.176C42.7095 9.192 42.7095 9.208 42.7095 9.224C42.7095 9.256 42.7015 9.28 42.6855 9.296C42.6855 9.312 42.6775 9.336 42.6615 9.368C42.5975 9.528 42.5255 9.696 42.4455 9.872C42.3815 10.048 42.3015 10.232 42.2055 10.424C42.0615 10.728 41.9255 11.032 41.7975 11.336C41.6855 11.64 41.6135 11.912 41.5815 12.152C41.7895 11.992 41.9975 11.824 42.2055 11.648C42.4135 11.472 42.6215 11.296 42.8295 11.12C42.8775 11.088 42.9175 11.056 42.9495 11.024C42.9815 10.992 43.0135 10.96 43.0455 10.928C43.4935 10.56 43.9335 10.2 44.3655 9.848C44.7975 9.48 45.2055 9.152 45.5895 8.864C45.6055 8.848 45.6295 8.832 45.6615 8.816C45.6935 8.8 45.7175 8.784 45.7335 8.768C45.8775 8.688 46.0455 8.616 46.2375 8.552C46.4455 8.472 46.6535 8.432 46.8615 8.432C46.9895 8.432 47.1015 8.448 47.1975 8.48C47.3095 8.496 47.4135 8.536 47.5095 8.6C47.6695 8.696 47.7815 8.8 47.8455 8.912C47.9095 9.008 47.9415 9.12 47.9415 9.248C47.9415 9.344 47.9255 9.456 47.8935 9.584C47.8615 9.696 47.8135 9.824 47.7495 9.968C47.6375 10.224 47.5015 10.512 47.3415 10.832C47.1975 11.136 47.0455 11.456 46.8855 11.792C46.8855 11.808 46.8775 11.824 46.8615 11.84C46.8615 11.856 46.8535 11.872 46.8375 11.888C46.5335 12.512 46.2535 13.088 45.9975 13.616C45.7575 14.128 45.6375 14.424 45.6375 14.504C45.6375 14.616 45.6615 14.696 45.7095 14.744C45.7575 14.776 45.8135 14.8 45.8775 14.816C45.9415 14.816 46.0135 14.8 46.0935 14.768C46.1895 14.72 46.2855 14.664 46.3815 14.6C46.4295 14.568 46.4775 14.536 46.5255 14.504C46.5735 14.456 46.6295 14.416 46.6935 14.384C47.0935 14.112 47.4695 13.848 47.8215 13.592C48.1895 13.32 48.5095 13.08 48.7815 12.872C48.8295 12.888 48.8775 12.944 48.9255 13.04C48.9735 13.12 49.0055 13.232 49.0215 13.376C49.0215 13.408 49.0215 13.448 49.0215 13.496C49.0215 13.528 49.0215 13.56 49.0215 13.592C49.0215 13.672 49.0135 13.76 48.9975 13.856C48.9975 13.936 48.9895 14.024 48.9735 14.12C48.9415 14.296 48.8855 14.472 48.8055 14.648C48.7255 14.808 48.5895 14.96 48.3975 15.104C48.2695 15.2 48.0855 15.328 47.8455 15.488C47.6055 15.648 47.3335 15.808 47.0295 15.968C46.9495 16.016 46.8615 16.064 46.7655 16.112C46.6695 16.16 46.5735 16.216 46.4775 16.28C46.1255 16.456 45.7815 16.616 45.4455 16.76C45.1255 16.904 44.8695 16.984 44.6775 17C44.5655 17.032 44.4535 17.056 44.3415 17.072C44.2295 17.088 44.1255 17.096 44.0295 17.096C43.7095 17.096 43.4535 17.032 43.2615 16.904C43.0855 16.776 42.9655 16.632 42.9015 16.472C42.8695 16.408 42.8455 16.352 42.8295 16.304C42.8295 16.24 42.8295 16.184 42.8295 16.136C42.8295 16.104 42.8295 16.072 42.8295 16.04C42.8295 16.008 42.8375 15.984 42.8535 15.968C42.9015 15.792 42.9575 15.624 43.0215 15.464C43.0855 15.304 43.1495 15.152 43.2135 15.008C43.3575 14.624 43.4935 14.296 43.6215 14.024C43.7655 13.736 43.8695 13.536 43.9335 13.424C43.9655 13.36 43.9975 13.296 44.0295 13.232C44.0615 13.168 44.1015 13.104 44.1495 13.04C44.1655 12.992 44.1815 12.952 44.1975 12.92C44.2135 12.888 44.2295 12.856 44.2455 12.824C44.3575 12.616 44.4455 12.416 44.5095 12.224C44.5895 12.032 44.6295 11.896 44.6295 11.816C44.6295 11.784 44.6295 11.768 44.6295 11.768C44.6295 11.752 44.6215 11.736 44.6055 11.72C44.5735 11.72 44.4775 11.784 44.3175 11.912C44.1735 12.024 44.0135 12.16 43.8375 12.32C43.8215 12.336 43.8055 12.352 43.7895 12.368C43.6295 12.496 43.4855 12.624 43.3575 12.752C43.2295 12.864 43.1415 12.944 43.0935 12.992C42.9175 13.152 42.7415 13.32 42.5655 13.496C42.3895 13.656 42.2215 13.816 42.0615 13.976C41.7255 14.296 41.3895 14.624 41.0535 14.96C40.7175 15.28 40.3895 15.592 40.0695 15.896C39.9095 16.056 39.7415 16.216 39.5655 16.376C39.4055 16.52 39.2455 16.664 39.0855 16.808C38.9895 16.872 38.8855 16.928 38.7735 16.976C38.6775 17.024 38.5735 17.056 38.4615 17.072C38.4295 17.088 38.3895 17.096 38.3415 17.096C38.3095 17.096 38.2775 17.096 38.2455 17.096C38.0535 17.096 37.8855 17.048 37.7415 16.952C37.5975 16.856 37.5255 16.68 37.5255 16.424C37.5255 16.248 37.6135 15.92 37.7895 15.44C37.9815 14.944 38.3495 14.152 38.8935 13.064C38.9095 13.032 38.9415 12.96 38.9895 12.848C39.0535 12.72 39.1175 12.592 39.1815 12.464C39.1975 12.432 39.2055 12.408 39.2055 12.392C39.2215 12.376 39.2295 12.352 39.2295 12.32C39.2935 12.192 39.3495 12.072 39.3975 11.96C39.4455 11.832 39.4695 11.736 39.4695 11.672C39.4695 11.656 39.4695 11.64 39.4695 11.624C39.4535 11.624 39.4455 11.624 39.4455 11.624C39.4455 11.608 39.4455 11.6 39.4455 11.6C39.4295 11.584 39.3655 11.616 39.2535 11.696C39.1575 11.776 39.0535 11.872 38.9415 11.984C38.8455 12.064 38.7575 12.144 38.6775 12.224C38.5975 12.288 38.5335 12.336 38.4855 12.368C38.0535 12.8 37.6535 13.184 37.2855 13.52C36.9335 13.84 36.5895 14.152 36.2535 14.456C36.2375 14.472 36.2135 14.488 36.1815 14.504C36.1655 14.52 36.1495 14.536 36.1335 14.552C35.7815 14.872 35.4135 15.216 35.0295 15.584C34.6615 15.936 34.2455 16.352 33.7815 16.832C33.7175 16.896 33.6375 16.952 33.5415 17C33.4455 17.032 33.3575 17.056 33.2775 17.072C33.2455 17.088 33.2135 17.096 33.1815 17.096C33.1495 17.096 33.1175 17.096 33.0855 17.096C32.8775 17.096 32.6935 17.04 32.5335 16.928C32.3895 16.816 32.3095 16.664 32.2935 16.472C32.2935 16.44 32.3015 16.408 32.3175 16.376C32.3175 16.328 32.3255 16.288 32.3415 16.256C32.3735 16.192 32.3975 16.128 32.4135 16.064C32.4295 15.984 32.4455 15.912 32.4615 15.848C32.4775 15.816 32.4855 15.784 32.4855 15.752C32.5015 15.72 32.5175 15.688 32.5335 15.656C32.6615 15.304 32.7735 14.984 32.8695 14.696C32.9655 14.392 33.0135 14.24 33.0135 14.24C32.9495 14.272 32.8695 14.32 32.7735 14.384C32.6935 14.448 32.6055 14.52 32.5095 14.6C32.4935 14.616 32.4775 14.632 32.4615 14.648C32.4615 14.648 32.4535 14.648 32.4375 14.648C32.3415 14.744 32.2455 14.832 32.1495 14.912C32.0535 14.992 31.9735 15.048 31.9095 15.08C31.8935 14.984 31.8855 14.88 31.8855 14.768C31.8695 14.64 31.8615 14.496 31.8615 14.336C31.8615 14.272 31.8615 14.208 31.8615 14.144C31.8615 14.064 31.8695 13.992 31.8855 13.928C31.8855 13.912 31.8855 13.896 31.8855 13.88C31.8855 13.864 31.8855 13.848 31.8855 13.832C31.9015 13.608 31.9255 13.424 31.9575 13.28C31.9895 13.136 32.0855 13 32.2455 12.872C32.3895 12.728 32.5575 12.568 32.7495 12.392C32.9575 12.2 33.1655 12 33.3735 11.792C33.4055 11.76 33.4375 11.728 33.4695 11.696C33.5015 11.664 33.5335 11.632 33.5655 11.6C33.9815 11.2 34.3495 10.832 34.6695 10.496C35.0055 10.144 35.1735 9.968 35.1735 9.968C35.2055 9.92 35.2295 9.872 35.2455 9.824C35.2775 9.76 35.3095 9.696 35.3415 9.632C35.3575 9.584 35.3735 9.544 35.3895 9.512C35.4055 9.464 35.4215 9.416 35.4375 9.368C35.5015 9.208 35.5655 9.056 35.6295 8.912C35.6935 8.768 35.7495 8.664 35.7975 8.6H37.9095C37.8295 8.76 37.7415 8.936 37.6455 9.128C37.5655 9.304 37.4775 9.48 37.3815 9.656C37.3655 9.688 37.3495 9.72 37.3335 9.752C37.3175 9.784 37.3015 9.816 37.2855 9.848C37.0935 10.248 36.9095 10.632 36.7335 11C36.5735 11.368 36.4695 11.688 36.4215 11.96ZM57.1712 12.872C57.2512 12.84 57.3152 12.912 57.3632 13.088C57.4112 13.264 57.4352 13.464 57.4352 13.688C57.4352 13.72 57.4352 13.76 57.4352 13.808C57.4352 13.84 57.4352 13.88 57.4352 13.928C57.4192 14.104 57.3872 14.28 57.3392 14.456C57.2912 14.616 57.2352 14.728 57.1712 14.792C57.0432 14.92 56.8912 15.056 56.7152 15.2C56.5552 15.328 56.3792 15.464 56.1872 15.608C55.6432 15.992 54.9872 16.344 54.2192 16.664C53.4672 16.968 52.6832 17.128 51.8672 17.144C51.5952 17.144 51.3232 17.12 51.0512 17.072C50.7792 17.024 50.5072 16.96 50.2352 16.88C49.5152 16.608 49.0832 16.208 48.9392 15.68C48.8112 15.152 48.7392 14.488 48.7232 13.688C48.7072 13.624 48.6992 13.56 48.6992 13.496C48.6992 13.416 48.6992 13.336 48.6992 13.256C48.6832 12.408 48.9712 11.592 49.5632 10.808C50.1552 10.008 51.0592 9.336 52.2752 8.792C52.6752 8.616 53.0672 8.488 53.4512 8.408C53.8352 8.312 54.1952 8.264 54.5312 8.264C55.1712 8.264 55.6912 8.424 56.0912 8.744C56.4912 9.048 56.6912 9.512 56.6912 10.136C56.6912 10.232 56.6912 10.328 56.6912 10.424C56.6912 10.52 56.6752 10.624 56.6432 10.736C56.5472 11.28 56.2752 11.768 55.8272 12.2C55.3952 12.616 54.9232 12.976 54.4112 13.28C54.2032 13.392 54.0032 13.496 53.8112 13.592C53.6192 13.672 53.4352 13.744 53.2592 13.808C52.8752 13.968 52.5472 14.072 52.2752 14.12C52.0032 14.152 51.7792 14.176 51.6032 14.192C51.4912 14.208 51.3872 14.224 51.2912 14.24C51.2112 14.256 51.1392 14.288 51.0752 14.336C50.9952 14.384 50.9632 14.448 50.9792 14.528C50.9952 14.608 51.0512 14.696 51.1472 14.792C51.2592 14.92 51.4352 15.04 51.6752 15.152C51.9152 15.264 52.1872 15.32 52.4912 15.32C52.5232 15.32 52.5472 15.32 52.5632 15.32C52.5952 15.32 52.6192 15.312 52.6352 15.296C52.6672 15.296 52.6912 15.296 52.7072 15.296C52.7392 15.296 52.7632 15.296 52.7792 15.296C52.9712 15.28 53.3312 15.168 53.8592 14.96C54.3872 14.752 54.9472 14.472 55.5392 14.12C55.8272 13.944 56.1072 13.752 56.3792 13.544C56.6672 13.336 56.9312 13.112 57.1712 12.872ZM50.8832 12.728C51.6672 12.616 52.3792 12.4 53.0192 12.08C53.6752 11.76 54.1152 11.424 54.3392 11.072C54.3872 10.992 54.4192 10.92 54.4352 10.856C54.4672 10.776 54.4832 10.704 54.4832 10.64C54.4832 10.56 54.4672 10.48 54.4352 10.4C54.4032 10.32 54.3472 10.248 54.2672 10.184C54.2032 10.12 54.1312 10.072 54.0512 10.04C53.9712 10.008 53.8832 9.992 53.7872 9.992C53.6272 9.992 53.4512 10.032 53.2592 10.112C53.0832 10.176 52.8992 10.264 52.7072 10.376C52.3552 10.616 52.0112 10.928 51.6752 11.312C51.3552 11.68 51.1152 12.064 50.9552 12.464C50.9392 12.512 50.9232 12.56 50.9072 12.608C50.9072 12.64 50.8992 12.68 50.8832 12.728ZM60.2093 9.512C60.2253 9.464 60.2413 9.424 60.2573 9.392C60.2733 9.344 60.2893 9.296 60.3053 9.248C60.3373 9.2 60.3613 9.152 60.3773 9.104C60.3933 9.056 60.4093 9.008 60.4253 8.96C60.4733 8.832 60.5213 8.728 60.5693 8.648C60.6333 8.568 60.6973 8.544 60.7613 8.576H62.7773C62.7453 8.64 62.6493 8.848 62.4893 9.2C62.3293 9.552 62.1533 9.928 61.9613 10.328C61.7533 10.776 61.5613 11.184 61.3853 11.552C61.2253 11.904 61.1453 12.08 61.1453 12.08C61.1453 12.096 61.1453 12.104 61.1453 12.104C61.1453 12.104 61.1453 12.112 61.1453 12.128C61.1453 12.16 61.1853 12.168 61.2653 12.152C61.3613 12.136 61.5533 12.008 61.8413 11.768C62.0173 11.624 62.2813 11.416 62.6333 11.144C62.9853 10.872 63.3613 10.592 63.7613 10.304C63.7933 10.272 63.8253 10.248 63.8573 10.232C63.8893 10.216 63.9213 10.192 63.9533 10.16C64.4173 9.824 64.8573 9.512 65.2733 9.224C65.6893 8.936 65.9853 8.752 66.1613 8.672C66.3213 8.592 66.4813 8.536 66.6413 8.504C66.8013 8.456 66.9693 8.432 67.1453 8.432C67.2733 8.432 67.4013 8.448 67.5293 8.48C67.6733 8.496 67.8173 8.544 67.9613 8.624C68.0573 8.672 68.1213 8.744 68.1533 8.84C68.2013 8.936 68.2253 9.048 68.2253 9.176C68.2253 9.32 68.2013 9.488 68.1533 9.68C68.1053 9.872 68.0413 10.064 67.9613 10.256C67.9293 10.352 67.8893 10.456 67.8413 10.568C67.7933 10.664 67.7453 10.752 67.6973 10.832C67.6653 10.896 67.6333 10.96 67.6013 11.024C67.5853 11.088 67.5613 11.144 67.5293 11.192C67.4333 11.384 67.3213 11.6 67.1933 11.84C67.0653 12.08 66.9373 12.336 66.8093 12.608C66.7773 12.656 66.7453 12.712 66.7133 12.776C66.6813 12.824 66.6493 12.88 66.6173 12.944C66.4733 13.216 66.3373 13.488 66.2093 13.76C66.0973 14.032 66.0093 14.28 65.9453 14.504C65.9453 14.504 65.9453 14.512 65.9453 14.528C65.9453 14.528 65.9453 14.536 65.9453 14.552C65.9293 14.568 65.9213 14.584 65.9213 14.6C65.9213 14.616 65.9213 14.632 65.9213 14.648C65.9213 14.68 65.9293 14.712 65.9453 14.744C65.9613 14.776 66.0013 14.8 66.0653 14.816C66.1453 14.816 66.2413 14.792 66.3533 14.744C66.4653 14.696 66.6253 14.616 66.8333 14.504C66.8493 14.488 66.8653 14.472 66.8813 14.456C66.9133 14.44 66.9453 14.424 66.9773 14.408C67.0573 14.36 67.1453 14.304 67.2413 14.24C67.3373 14.176 67.4253 14.112 67.5053 14.048C67.9373 13.744 68.3133 13.464 68.6333 13.208C68.9693 12.952 69.1373 12.824 69.1373 12.824C69.1533 12.824 69.1773 12.824 69.2093 12.824C69.2413 12.824 69.2733 12.848 69.3053 12.896C69.3373 12.944 69.3693 13.032 69.4012 13.16C69.4333 13.288 69.4493 13.48 69.4493 13.736C69.4493 14.04 69.4013 14.312 69.3053 14.552C69.2253 14.776 69.0733 14.96 68.8493 15.104C68.7533 15.168 68.5613 15.296 68.2733 15.488C68.0013 15.664 67.6813 15.864 67.3133 16.088C67.1213 16.2 66.9213 16.312 66.7133 16.424C66.5213 16.52 66.3213 16.616 66.1133 16.712C65.8413 16.824 65.5693 16.912 65.2973 16.976C65.0413 17.04 64.8013 17.072 64.5773 17.072C64.0973 17.072 63.7613 17 63.5693 16.856C63.3773 16.712 63.2733 16.504 63.2573 16.232C63.2573 16.088 63.2813 15.928 63.3293 15.752C63.3773 15.576 63.4333 15.384 63.4973 15.176C63.5613 15.016 63.6333 14.848 63.7133 14.672C63.7933 14.496 63.8733 14.312 63.9533 14.12C63.9693 14.072 63.9853 14.032 64.0013 14C64.0333 13.952 64.0573 13.904 64.0733 13.856C64.2653 13.44 64.4413 13.072 64.6013 12.752C64.7773 12.416 64.8653 12.248 64.8653 12.248C65.0733 11.8 65.0653 11.64 64.8413 11.768C64.6333 11.88 64.3773 12.064 64.0733 12.32C64.0573 12.32 64.0413 12.328 64.0253 12.344C64.0253 12.344 64.0253 12.352 64.0253 12.368C63.9933 12.384 63.9613 12.408 63.9293 12.44C63.8973 12.456 63.8653 12.48 63.8333 12.512C63.5773 12.72 63.1453 13.08 62.5373 13.592C61.9453 14.104 61.3053 14.648 60.6173 15.224C60.5853 15.24 60.5453 15.264 60.4973 15.296C60.4653 15.328 60.4333 15.36 60.4013 15.392C60.0813 15.648 59.7613 15.904 59.4413 16.16C59.1373 16.416 58.8493 16.656 58.5773 16.88C58.5293 16.928 58.4733 16.968 58.4093 17C58.3613 17.016 58.3053 17.032 58.2413 17.048C58.1773 17.08 58.1133 17.096 58.0493 17.096C58.0013 17.112 57.9533 17.12 57.9053 17.12C57.6973 17.12 57.5293 17.056 57.4013 16.928C57.2733 16.784 57.2092 16.592 57.2092 16.352C57.2092 16.272 57.2172 16.2 57.2332 16.136C57.2332 16.056 57.2492 15.976 57.2812 15.896C57.2812 15.832 57.2893 15.776 57.3053 15.728C57.3373 15.664 57.3613 15.6 57.3773 15.536C57.4733 15.248 57.5693 14.984 57.6653 14.744C57.7613 14.504 57.8413 14.32 57.9053 14.192H57.8573C57.8573 14.192 57.8093 14.24 57.7133 14.336C57.6333 14.416 57.5373 14.504 57.4253 14.6C57.4093 14.616 57.3933 14.632 57.3773 14.648C57.3613 14.648 57.3453 14.656 57.3293 14.672C57.2332 14.768 57.1452 14.848 57.0652 14.912C56.9692 14.976 56.8972 15.008 56.8492 15.008C56.8172 15.008 56.8012 14.96 56.8012 14.864C56.7852 14.752 56.7692 14.632 56.7532 14.504C56.7532 14.424 56.7532 14.352 56.7532 14.288C56.7532 14.208 56.7532 14.144 56.7532 14.096C56.7532 13.792 56.7612 13.568 56.7772 13.424C56.7932 13.264 56.8492 13.12 56.9452 12.992C56.9772 12.96 57.0092 12.928 57.0412 12.896C57.0732 12.864 57.1052 12.832 57.1372 12.8C57.2812 12.704 57.4413 12.584 57.6173 12.44C57.7933 12.28 57.9693 12.12 58.1453 11.96C58.2733 11.848 58.3933 11.728 58.5053 11.6C58.6333 11.472 58.7533 11.352 58.8652 11.24C59.2013 10.872 59.4893 10.528 59.7293 10.208C59.9853 9.888 60.1453 9.656 60.2093 9.512ZM74.2967 7.784C74.3127 7.784 74.3207 7.784 74.3207 7.784C74.3367 7.784 74.3527 7.784 74.3687 7.784C74.3847 7.784 74.4007 7.784 74.4167 7.784C75.1847 7.768 75.7687 7.968 76.1687 8.384C76.5847 8.8 76.8487 9.264 76.9607 9.776C76.9927 9.872 77.0087 9.968 77.0087 10.064C77.0247 10.16 77.0327 10.256 77.0327 10.352C77.0327 10.624 76.9847 10.872 76.8887 11.096C76.8087 11.32 76.6887 11.496 76.5287 11.624C76.5927 11.768 76.6327 11.904 76.6487 12.032C76.6807 12.144 76.6967 12.256 76.6967 12.368C76.6967 12.528 76.6727 12.68 76.6247 12.824C76.5767 12.952 76.5207 13.088 76.4567 13.232C76.4407 13.264 76.4247 13.296 76.4087 13.328C76.3927 13.36 76.3767 13.392 76.3607 13.424C76.3927 13.44 76.4167 13.456 76.4327 13.472C76.4647 13.472 76.4967 13.472 76.5287 13.472C76.5607 13.488 76.5847 13.496 76.6007 13.496C76.6327 13.496 76.6647 13.496 76.6967 13.496C76.9207 13.496 77.1367 13.44 77.3447 13.328C77.5687 13.216 77.8007 13.064 78.0407 12.872C78.0887 12.808 78.1287 12.856 78.1607 13.016C78.1927 13.176 78.2087 13.368 78.2087 13.592C78.2087 13.64 78.2087 13.688 78.2087 13.736C78.2087 13.784 78.2087 13.832 78.2087 13.88C78.1927 14.104 78.1607 14.312 78.1127 14.504C78.0807 14.68 78.0327 14.792 77.9687 14.84C77.8407 14.968 77.6647 15.08 77.4407 15.176C77.2167 15.272 76.9767 15.344 76.7207 15.392C76.6567 15.392 76.5927 15.4 76.5287 15.416C76.4807 15.416 76.4247 15.416 76.3607 15.416C76.2327 15.416 76.1047 15.408 75.9767 15.392C75.8647 15.36 75.7687 15.312 75.6887 15.248C75.1767 15.888 74.5927 16.368 73.9367 16.688C73.2807 17.008 72.5607 17.16 71.7767 17.144C71.6327 17.144 71.4807 17.136 71.3207 17.12C71.1767 17.104 71.0247 17.072 70.8647 17.024C70.3687 16.928 69.9127 16.656 69.4967 16.208C69.0967 15.76 68.8967 14.968 68.8967 13.832C68.8967 13.688 68.9047 13.544 68.9207 13.4C68.9207 13.24 68.9287 13.08 68.9447 12.92C68.9767 12.648 69.0407 12.36 69.1367 12.056C69.2167 11.736 69.3207 11.416 69.4487 11.096C69.8167 10.296 70.4007 9.56 71.2007 8.888C72.0007 8.2 73.0327 7.832 74.2967 7.784ZM73.9367 14.264C73.9207 14.216 73.8967 14.16 73.8647 14.096C73.8487 14.032 73.8247 13.96 73.7927 13.88C73.7447 13.784 73.7047 13.672 73.6727 13.544C73.6407 13.416 73.6247 13.28 73.6247 13.136C73.6247 13.056 73.6247 12.984 73.6247 12.92C73.6407 12.84 73.6567 12.76 73.6727 12.68C73.7207 12.456 73.8007 12.264 73.9127 12.104C74.0247 11.944 74.1367 11.8 74.2487 11.672C74.3607 11.56 74.4647 11.464 74.5607 11.384C74.6727 11.304 74.7607 11.224 74.8247 11.144C74.8407 11.112 74.8487 11.08 74.8487 11.048C74.8647 11.016 74.8727 10.984 74.8727 10.952C74.8567 10.664 74.7607 10.424 74.5847 10.232C74.4087 10.04 74.1687 9.944 73.8647 9.944C73.6087 9.944 73.3127 10.04 72.9767 10.232C72.6407 10.424 72.2967 10.744 71.9447 11.192C71.7847 11.4 71.6407 11.664 71.5127 11.984C71.3847 12.288 71.2887 12.608 71.2247 12.944C71.2087 13.072 71.1927 13.2 71.1767 13.328C71.1607 13.44 71.1527 13.56 71.1527 13.688C71.1527 13.944 71.1847 14.184 71.2487 14.408C71.3127 14.616 71.4247 14.784 71.5847 14.912C71.6007 14.912 71.6167 14.92 71.6327 14.936C71.6487 14.952 71.6647 14.96 71.6807 14.96C71.7607 15.008 71.8647 15.048 71.9927 15.08C72.1207 15.112 72.2567 15.128 72.4007 15.128C72.5127 15.128 72.6247 15.12 72.7367 15.104C72.8647 15.088 72.9847 15.056 73.0967 15.008C73.2407 14.944 73.3847 14.856 73.5287 14.744C73.6727 14.616 73.8087 14.456 73.9367 14.264ZM80.8035 9.344C80.6595 9.2 80.5555 9.048 80.4915 8.888C80.4435 8.728 80.4195 8.568 80.4195 8.408C80.4195 8.136 80.4835 7.88 80.6115 7.64C80.7555 7.384 80.9075 7.2 81.0675 7.088C81.1155 7.072 81.1555 7.056 81.1875 7.04C81.2355 7.008 81.2755 6.992 81.3075 6.992C81.3875 6.976 81.4595 6.968 81.5235 6.968C81.6035 6.952 81.6755 6.944 81.7395 6.944C82.0755 6.944 82.3555 7.032 82.5795 7.208C82.8035 7.368 82.9315 7.56 82.9635 7.784C82.9795 7.864 82.9875 7.936 82.9875 8C83.0035 8.064 83.0115 8.128 83.0115 8.192C83.0275 8.304 83.0435 8.4 83.0595 8.48C83.0915 8.56 83.1315 8.624 83.1795 8.672C83.1955 8.672 83.2115 8.672 83.2275 8.672C83.2275 8.688 83.2275 8.696 83.2275 8.696C83.2435 8.696 83.2515 8.696 83.2515 8.696C83.2995 8.696 83.3635 8.688 83.4435 8.672C83.5235 8.656 83.6195 8.632 83.7315 8.6C83.8275 8.584 83.9315 8.568 84.0435 8.552C84.1715 8.536 84.2915 8.528 84.4035 8.528C84.5315 8.528 84.6595 8.544 84.7875 8.576C84.9155 8.592 85.0355 8.64 85.1475 8.72C85.3875 8.864 85.5555 9.032 85.6515 9.224C85.7475 9.416 85.8035 9.624 85.8195 9.848C85.8195 9.912 85.8115 9.984 85.7955 10.064C85.7955 10.144 85.7795 10.216 85.7475 10.28C85.7315 10.36 85.7075 10.44 85.6755 10.52C85.6435 10.584 85.6115 10.656 85.5795 10.736C85.4675 11.008 85.3315 11.296 85.1715 11.6C85.0275 11.904 84.8755 12.216 84.7155 12.536C84.6995 12.568 84.6835 12.6 84.6675 12.632C84.6515 12.648 84.6435 12.672 84.6435 12.704C84.4675 13.024 84.2995 13.344 84.1395 13.664C83.9955 13.968 83.8595 14.248 83.7315 14.504C83.7315 14.52 83.7235 14.536 83.7075 14.552C83.7075 14.616 83.7315 14.68 83.7795 14.744C83.8275 14.792 83.8915 14.816 83.9715 14.816C84.0035 14.832 84.0275 14.84 84.0435 14.84C84.0755 14.824 84.1075 14.808 84.1395 14.792C84.2515 14.744 84.4115 14.656 84.6195 14.528C84.8435 14.4 85.0755 14.264 85.3155 14.12C85.3635 14.072 85.4115 14.032 85.4595 14C85.5075 13.968 85.5635 13.936 85.6275 13.904C85.8355 13.76 86.0195 13.616 86.1795 13.472C86.3555 13.328 86.4835 13.216 86.5635 13.136C86.6435 13.024 86.7075 12.952 86.7555 12.92C86.8035 12.872 86.8435 12.84 86.8755 12.824C86.8915 12.824 86.9075 12.832 86.9235 12.848C86.9395 12.848 86.9555 12.856 86.9715 12.872C86.9875 12.888 87.0035 12.904 87.0195 12.92C87.0355 12.936 87.0515 12.952 87.0675 12.968C87.1155 13.016 87.1555 13.128 87.1875 13.304C87.2195 13.48 87.2355 13.672 87.2355 13.88C87.2355 14.056 87.2195 14.224 87.1875 14.384C87.1715 14.544 87.1235 14.656 87.0435 14.72C86.8995 14.848 86.7315 14.984 86.5395 15.128C86.3635 15.272 86.1715 15.416 85.9635 15.56C85.5315 15.88 85.0435 16.176 84.4995 16.448C83.9715 16.72 83.4115 16.92 82.8195 17.048C82.7235 17.08 82.6275 17.096 82.5315 17.096C82.4515 17.112 82.3715 17.12 82.2915 17.12C81.8915 17.12 81.5715 17.008 81.3315 16.784C81.0915 16.56 80.9635 16.288 80.9475 15.968C80.9475 15.888 80.9555 15.808 80.9715 15.728C81.0035 15.632 81.0275 15.544 81.0435 15.464C81.1875 15.08 81.3315 14.712 81.4755 14.36C81.6355 14.008 81.7955 13.664 81.9555 13.328C82.1635 12.896 82.3795 12.456 82.6035 12.008C82.8275 11.56 83.0595 11.072 83.2995 10.544C83.3155 10.528 83.3235 10.512 83.3235 10.496C83.3235 10.48 83.3235 10.464 83.3235 10.448C83.3235 10.384 83.2835 10.336 83.2035 10.304C83.1395 10.272 83.0515 10.256 82.9395 10.256C82.9075 10.256 82.8755 10.256 82.8435 10.256C82.8115 10.256 82.7715 10.264 82.7235 10.28C82.6275 10.296 82.5315 10.328 82.4355 10.376C82.3395 10.408 82.2675 10.456 82.2195 10.52C82.1555 10.616 82.1075 10.688 82.0755 10.736C82.0435 10.768 82.0195 10.8 82.0035 10.832C81.9715 10.896 81.9075 10.984 81.8115 11.096C81.7315 11.208 81.5075 11.464 81.1395 11.864C81.0115 12.008 80.8755 12.152 80.7315 12.296C80.6035 12.44 80.4675 12.584 80.3235 12.728C80.2435 12.808 80.1635 12.888 80.0835 12.968C80.0035 13.048 79.9235 13.128 79.8435 13.208C79.3795 13.656 78.9475 14.056 78.5475 14.408C78.1635 14.744 77.8995 14.944 77.7555 15.008C77.6915 15.024 77.6515 14.944 77.6355 14.768C77.6035 14.576 77.5875 14.352 77.5875 14.096C77.5875 14.08 77.5875 14.064 77.5875 14.048C77.5875 14.032 77.5875 14.016 77.5875 14C77.5875 13.776 77.6035 13.568 77.6355 13.376C77.6675 13.184 77.7155 13.056 77.7795 12.992C77.9715 12.832 78.1555 12.664 78.3315 12.488C78.5075 12.312 78.6755 12.136 78.8355 11.96C79.4435 11.304 79.9235 10.704 80.2755 10.16C80.6275 9.616 80.8035 9.344 80.8035 9.344Z" fill="#7C7C7C"/>
</svg>
